{"title":"Madea's Witness Protection 2012 BRRip XviD-MeRCuRY","uid":7848486,"size":736435694,"categoryP":"video","categoryS":"movies","magnet":"?xt=urn:btih:5e2fc2a6fcfd698258e4b00e4d7710cfafa5591f&amp;dn=Madea%27s+Witness+Protection+2012+BRRip+XviD-MeRCuRY&amp;tr=udp%3A%2F%2Ftracker.openbittorrent.com%3A80&amp;tr=udp%3A%2F%2Fopen.demonii.com%3A1337&amp;tr=udp%3A%2F%2Ftracker.coppersurfer.tk%3A6969&amp;tr=udp%3A%2F%2Fexodus.desync.com%3A6969","seeders":1,"leechers":1,"uploader":"Mediamonster","files":-1,"time":1353532353,"description":"Madea's Witness Protection 2012 BRRip XviD-MeRCuRY &lt;a href=&quot;\nhttp://www.imdb.com/title/tt2215285/&quot; rel=&quot;nofollow&quot; target=&quot;_NEW&quot;&gt;\nhttp://www.imdb.com/title/tt2215285/&lt;/a&gt;\n\nPlot:\nA Wall Street investment banker who has been set up as the linchpin of his company's mob-backed Ponzi scheme is relocated with his family to Aunt Madea's southern home.\n\nFormat                                   : AVI\nFormat/Info                              : Audio Video Interleave\nFile size                                : 696 MiB\nDuration                                 : 1h 54mn\nOverall bit rate                         : 849 Kbps\n\nVideo\nID                                       : 0\nFormat                                   : MPEG-4 Visual\nFormat profile                           : Advanced Simple@L5\nFormat settings, BVOP                    : 2\nFormat settings, QPel                    : No\nFormat settings, GMC                     : No warppoints\nFormat settings, Matrix                  : Default (H.263)\nCodec ID                                 : XVID\nCodec ID/Hint                            : XviD\nDuration                                 : 1h 54mn\nBit rate                                 : 731 Kbps\nWidth                                    : 640 pixels\nHeight                                   : 352 pixels\nDisplay aspect ratio                     : 16:9\nFrame rate                               : 23.976 fps\nColor space                              : YUV\nChroma subsampling                       : 4:2:0\nBit depth                                : 8 bits\nScan type                                : Progressive\nCompression mode                         : Lossy\nBits/(Pixel*Frame)                       : 0.135\nStream size                              : 599 MiB (86%)\nWriting library                          : XviD 1.2.1 (UTC 2008-12-04)\n\nAudio\nID                                       : 1\nFormat                                   : MPEG Audio\nFormat version                           : Version 1\nFormat profile                           : Layer 3\nMode                                     : Joint stereo\nCodec ID                                 : 55\nCodec ID/Hint                            : MP3\nDuration                                 : 1h 54mn\nBit rate mode                            : Constant\nBit rate                                 : 112 Kbps\nChannel(s)                               : 2 channels\nSampling rate                            : 44.1 KHz\nCompression mode                         : Lossy\nStream size                              : 91.8 MiB (13%)\nAlignment                                : Aligned on interleaves\nInterleave, duration                     : 167 ms (4.00 video frames)\nInterleave, preload duration             : 208 ms\nTitle                                    : Madea's.Witness.Protection.2012.BluRay.720p.DTS.x264-CHD\nWriting library                          : LAME3.99r\nEncoding settings                        : -m j -V 4 -q 2 -lowpass 15.6 -b 112\n\n","torrent":{"xt":"urn:btih:5e2fc2a6fcfd698258e4b00e4d7710cfafa5591f","amp;dn":"Madea%27s+Witness+Protection+2012+BRRip+XviD-MeRCuRY","amp;tr":["udp%3A%2F%2Ftracker.openbittorrent.com%3A80","udp%3A%2F%2Fopen.demonii.com%3A1337","udp%3A%2F%2Ftracker.coppersurfer.tk%3A6969","udp%3A%2F%2Fexodus.desync.com%3A6969"],"infoHash":"5e2fc2a6fcfd698258e4b00e4d7710cfafa5591f","infoHashBuffer":{"type":"Buffer","data":[94,47,194,166,252,253,105,130,88,228,176,14,77,119,16,207,175,165,89,31]},"announce":[],"urlList":[]}}